<svg preserveAspectRatio="none" overflow="visible" style="display: block;" width="25.75" height="17" viewBox="0 0 25.75 17" fill="none" xmlns="http://www.w3.org/2000/svg">
<g id="deck_icon">
<g id="Group 1">
<path id="Vector" d="M9.19322 14.0708L14.6662 7.28879C15.0133 6.85826 14.9595 6.21731 14.5457 5.8558L12.6589 4.20961L9.26256 13.913C9.2433 13.9681 9.21788 14.0191 9.19322 14.0708ZM12.747 5.74418L13.4404 6.34893C13.6773 6.55599 13.7084 6.92308 13.5092 7.16882L12.9276 7.8902L12.7644 7.74796L13.1337 7.28958L13.0505 6.29797L12.61 5.91392L12.747 5.74418Z" fill="#EAEAEA"/>
<path id="Vector_2" d="M7.34292 13.7327H5.92658L7.43686 14.3043C7.94432 14.4964 8.50558 14.2245 8.68994 13.6968L12.1165 3.90742C12.3009 3.37944 12.0397 2.79615 11.532 2.6041L8.92731 1.61834C8.92785 1.63421 8.92973 1.64979 8.92973 1.66567V12.0826C8.92973 12.9924 8.21806 13.7327 7.34292 13.7327ZM9.8049 3.13842L10.6555 3.4607C10.9461 3.57063 11.096 3.90432 10.9897 4.20627L10.6806 5.09101L10.4801 5.0153L10.6766 4.45313L10.2724 3.55116L9.73206 3.34687L9.8049 3.13842Z" fill="#EAEAEA"/>
<path id="Vector_3" d="M8.32089 12.0826V1.66567C8.32089 1.10376 7.88328 0.648448 7.34294 0.648448H0.97823C0.438112 0.648415 0 1.10376 0 1.66567V12.0826C0 12.6445 0.438112 13.0995 0.97823 13.0995H7.34298C7.88332 13.0995 8.32089 12.6445 8.32089 12.0826ZM5.89582 1.765H6.80099C7.11037 1.7653 7.36091 2.02576 7.36062 2.34724L7.36091 3.28845H7.14788L7.14763 2.69037L6.47104 1.98682H5.89588V1.765H5.89582ZM2.90682 5.66965L3.11318 5.23381L3.32008 5.66965L3.78283 5.74004L3.44802 6.07905L3.52695 6.55799L3.11318 6.33202L2.69995 6.55799L2.77863 6.07905L2.44434 5.74004L2.90682 5.66965ZM0.960552 2.34721C0.960837 2.02576 1.21106 1.76527 1.52019 1.76527H2.42533V1.98678H1.85045L1.17361 2.6909V3.28842H0.960584V2.34721H0.960552ZM1.51965 11.983C1.21106 11.9828 0.960298 11.7225 0.960552 11.4011L0.960298 10.4599H1.17332V11.0576L1.85049 11.7615H2.4251L2.42536 11.983H1.51965ZM4.11068 8.92998C3.21008 8.92998 2.44757 8.31823 2.18342 7.47333C2.44329 7.6122 2.7369 7.69204 3.04898 7.69204C4.0976 7.69204 4.94736 6.80815 4.94736 5.71773C4.94736 5.39351 4.87027 5.0882 4.73725 4.81827C5.54978 5.09266 6.13753 5.88585 6.13753 6.82234C6.1375 7.98626 5.22992 8.92998 4.11068 8.92998ZM6.80099 11.9827H5.89582V11.7615H6.47072L7.14731 11.0573V10.4599H7.36062V11.4011C7.36062 11.7225 7.11037 11.9827 6.80099 11.9827Z" fill="#EAEAEA"/>
<path id="Vector_4" d="M16.119 10.164L14.9052 7.97791L9.65975 14.4777C9.54038 14.6261 9.36776 14.7037 9.19301 14.7037C9.07843 14.7037 8.96338 14.6706 8.86112 14.6016C8.84938 14.5935 8.83945 14.5832 8.82821 14.574C8.57504 14.8098 8.2528 14.9612 7.90489 14.9923L7.95707 15.0856L7.17288 15.5565C6.90495 15.7168 6.5632 15.6216 6.4085 15.3436L5.95592 14.5281L6.06888 14.4605L5.71852 14.328C5.47471 14.2356 5.31814 13.9949 5.31843 13.7327H4.2738L5.74931 16.3897C6.01936 16.8765 6.61725 17.0426 7.0851 16.7621L15.7606 11.5533C16.2287 11.2725 16.3888 10.6508 16.119 10.164ZM14.713 11.0295L13.9294 11.5001L13.8229 11.3087L14.3204 11.0092L14.5688 10.0479L14.2808 9.53027L14.4655 9.41925L14.918 10.2344C15.0725 10.5133 14.9809 10.8689 14.713 11.0295Z" fill="#EAEAEA"/>
</g>
<path id="Vector_5" d="M16.665 0.400391H16.666C18.5843 0.398506 20.5148 1.13627 21.9785 2.60059H21.9795C23.4442 4.06453 24.1816 5.99669 24.1807 7.91504L24.1758 8.16602C24.1336 9.41949 23.7698 10.6692 23.0986 11.7842L22.9375 12.0518L23.1582 12.2734L24.9072 14.0225H24.9082C25.4977 14.6117 25.4975 15.5679 24.9082 16.1572H24.9072C24.3175 16.7471 23.3623 16.7471 22.7725 16.1572H22.7715L21.0234 14.4092L20.8018 14.1885L20.5342 14.3496C19.3443 15.0651 18.0025 15.4321 16.666 15.4307H16.665C14.8663 15.432 13.0558 14.7839 11.6309 13.4961L11.3516 13.2295L11.085 12.9502C9.79673 11.5246 9.14853 9.71383 9.15039 7.91504L9.1582 7.55469C9.24383 5.75644 9.97836 3.973 11.3516 2.60059C12.8155 1.13602 14.7467 0.3979 16.665 0.400391ZM16.6641 2.65527C15.3145 2.65761 13.9773 3.1659 12.9463 4.19531V4.19629C11.9165 5.22742 11.408 6.56425 11.4062 7.91406V7.91504C11.4078 9.18045 11.8545 10.435 12.7588 11.4365L12.9463 11.6338C13.9779 12.6644 15.3151 13.1731 16.665 13.1748H16.666C18.0158 13.173 19.3527 12.6644 20.3838 11.6338C21.4138 10.6026 21.922 9.26553 21.9248 7.91602V7.91406C21.922 6.56444 21.4139 5.2276 20.3838 4.19629V4.19531C19.3527 3.16589 18.0157 2.65758 16.666 2.65527H16.6641Z" fill="#EAEAEA" stroke="#191C1F" stroke-width="0.8"/>
</g>
</svg>
